# xmcd
# 
# Track frame offsets:
#     182
#     19087
#     34575
#     54262
#     69987
#     88762
#     107725
#     127037
#     145775
#     164187
#     186425
#     204845
#     225960
#     245310
#     264862
#     281675
#     299312
#     316487
# 
# Disc length: 4487
# 
# Revision: 6
# Processed by: cddbd v1.5.2PL0 Copyright (c) Steve Scherf et al.
# Submitted via: fre:ac v1.0.31
# 
DISCID=fd118512
DTITLE=Juan Luis Guerra - Grandes éxitos
DYEAR=1995
DGENRE=Bachata
TTITLE0=El costo de la vida
TTITLE1=Rosalía
TTITLE2=Woman del callao
TTITLE3=Visa para un sueño
TTITLE4=Burbujas de amor
TTITLE5=Ojalá que llueva café
TTITLE6=Me enamoro de ella
TTITLE7=Frío frío
TTITLE8=Como abeja al panal
TTITLE9=A pedir su mano
TTITLE10=La Bilirrubina
TTITLE11=Carta de amor
TTITLE12=Bachata rosa
TTITLE13=Guavaberry
TTITLE14=La cosquillita
TTITLE15=La gallera
TTITLE16=Si tú te vas
TTITLE17=Rompiendo fuente
EXTD=YEAR: 1995
EXTT0=
EXTT1=
EXTT2=
EXTT3=
EXTT4=
EXTT5=
EXTT6=
EXTT7=
EXTT8=
EXTT9=
EXTT10=
EXTT11=
EXTT12=
EXTT13=
EXTT14=
EXTT15=
EXTT16=
EXTT17=
PLAYORDER=
